<?xml version="1.0" encoding="utf-8"?>
<!-- Generator: Adobe Illustrator 26.1.0, SVG Export Plug-In . SVG Version: 6.00 Build 0)  -->
<svg version="1.1" id="Lager_1" xmlns="http://www.w3.org/2000/svg" xmlns:xlink="http://www.w3.org/1999/xlink" x="0px" y="0px"
	 viewBox="0 0 96.4 84.4" style="enable-background:new 0 0 96.4 84.4;" xml:space="preserve">
<style type="text/css">
	.st0{fill:#FFFFFF;}
</style>
<g>
	<path class="st0" d="M24,42.7c0,11.9,0,23.9,0,35.8c0,4.5-1.4,5.9-6,5.9c-4.2,0-8.4,0-12.6,0c-3.8,0-5.4-1.7-5.4-5.5
		C0,54.8,0,30.7,0,6.7c0-3.6,1.7-5.3,5.3-5.3c4.5,0,9,0,13.5,0C22.4,1.4,24,3,24,6.7C24,18.7,24,30.7,24,42.7z M4.6,76.9
		c4.8,0,9.4,0,14.1,0c0.7,0,0.9-0.3,1-1c0.7-4.1,0.2-4.8-4-4.8c-1.4,0-2.9,0-4.3,0c-2.2,0-4.5,0-6.8,0C4.6,73.1,4.6,74.9,4.6,76.9z
		 M4.6,17.6c4.8,0,9.4,0,14.1,0c0.7,0,1-0.3,1-1c0-1.4,0-2.9,0-4.4c-5.2,0-10.1,0-15.1,0C4.6,14,4.6,15.7,4.6,17.6z M4.6,23.6
		c4.4,0,8.6,0,12.8,0c2.6,0,2.7-0.2,2-2.7c-4.9,0-9.9,0-14.8,0C4.6,21.8,4.6,22.5,4.6,23.6z"/>
	<path class="st0" d="M52.7,43c0,12,0,24,0,36c0,3.7-1.5,5.3-5.3,5.3c-4.4,0-8.9,0-13.3,0c-3.8,0-5.4-1.7-5.4-5.5c0-24,0-48,0-72
		c0-3.8,1.7-5.5,5.6-5.5c4.4,0,8.7,0,13.1,0c3.7,0,5.3,1.6,5.3,5.3C52.7,18.8,52.7,30.9,52.7,43z M41,71.1c-1.2,0-2.5,0-3.7,0
		c-4.3,0-4.2,0-4.2,4.3c0,1.3,0.5,1.6,1.7,1.6c3.2-0.1,6.3,0,9.5,0c4.8-0.1,4,0.9,4.1-4.2c0-1.4-0.5-1.8-1.8-1.7
		C44.8,71.1,42.9,71.1,41,71.1z M33.3,17.3c0.3,0.1,0.4,0.2,0.5,0.2c3.3,0,6.6,0,9.9,0c5,0,5,0,4.6-5c0-0.1-0.1-0.2-0.2-0.4
		c-4.9,0-9.8,0-14.9,0C33.3,14,33.3,15.6,33.3,17.3z M48.2,20.9c-5.1,0-10,0-14.9,0c0,0.9,0,1.6,0,2.6c4.3,0,8.6,0,12.9,0
		C48.6,23.6,48.6,23.6,48.2,20.9z"/>
	<path class="st0" d="M56.7,7.7c0-2.6,1.2-4.2,3.5-4.7c4.7-1,9.5-2,14.2-2.9c3.3-0.6,5.3,0.8,6,4.1c3.8,17,7.6,34,11.3,51
		c1.4,6.5,2.9,13,4.4,19.5c0.9,4.2-0.3,6.1-4.5,6.9c-4.4,0.8-8.8,1.8-13.2,2.6c-2.8,0.5-4.8-0.8-5.5-3.6
		c-4.2-18.4-8.3-36.9-12.4-55.3C59.4,20,58.2,14.8,57,9.5C56.8,8.8,56.8,8,56.7,7.7z M90.1,68.4c-5.1,1-9.8,2-14.7,3
		c0.2,2,0.6,3.8,1.3,5.7c4.9-1,9.7-2,14.6-3C90.9,72,90.5,70.3,90.1,68.4z M63.6,18.9c5-1,9.8-2,14.9-3c-0.8-1.9-0.6-3.7-1.6-5.4
		c-4.8,1-9.5,1.9-14.3,2.9C62.5,15.3,63.2,16.9,63.6,18.9z M64.3,22.2c0.6,1-0.1,2.8,2.1,2.3c4.3-0.9,8.7-1.8,13.1-2.7
		c0.2-1-0.1-1.8-0.7-2.7c-4.5,0.9-9,1.8-13.5,2.7C65.1,21.9,64.8,22,64.3,22.2z"/>
</g>
</svg>
