<?xml version="1.0" encoding="utf-8"?>
<!-- Generator: Adobe Illustrator 26.1.0, SVG Export Plug-In . SVG Version: 6.00 Build 0)  -->
<svg version="1.1" id="Lager_1" xmlns="http://www.w3.org/2000/svg" xmlns:xlink="http://www.w3.org/1999/xlink" x="0px" y="0px"
	 viewBox="0 0 540.64 88.12" style="enable-background:new 0 0 540.64 88.12;" xml:space="preserve">
<style type="text/css">
	.st0{fill:#FFFFFF;}
</style>
<g>
	<path class="st0" d="M24.04,42.71c0,11.93,0,23.86,0,35.78c0,4.49-1.41,5.86-5.98,5.87c-4.22,0-8.43,0.03-12.65-0.01
		c-3.8-0.03-5.4-1.67-5.4-5.47C0,54.82,0,30.75,0,6.69c0-3.62,1.68-5.32,5.31-5.34c4.49-0.02,8.99-0.02,13.48,0
		c3.65,0.02,5.24,1.65,5.25,5.36C24.04,18.71,24.04,30.71,24.04,42.71z M4.59,76.92c4.76,0,9.43,0,14.1,0
		c0.67,0,0.92-0.35,1.03-1.01c0.74-4.14,0.18-4.83-4.03-4.83c-1.45,0-2.9,0-4.34,0c-2.25,0-4.5,0-6.77,0
		C4.59,73.15,4.59,74.92,4.59,76.92z M4.6,17.57c4.78,0,9.45,0,14.12,0c0.69,0,0.99-0.34,0.99-1.01c-0.01-1.43,0-2.85,0-4.36
		c-5.16,0-10.09,0-15.11,0C4.6,13.99,4.6,15.67,4.6,17.57z M4.56,23.58c4.42,0,8.61,0,12.81,0c2.57,0,2.7-0.18,2.03-2.66
		c-4.94,0-9.87,0-14.84,0C4.56,21.8,4.56,22.55,4.56,23.58z"/>
	<path class="st0" d="M52.7,43.05c0,12,0,24.01,0,36.01c0,3.7-1.55,5.27-5.29,5.29c-4.43,0.03-8.85,0.03-13.28,0
		c-3.76-0.02-5.43-1.68-5.44-5.47c-0.02-24.01-0.02-48.01,0-72.02c0-3.84,1.73-5.5,5.62-5.51c4.36-0.01,8.71-0.02,13.07,0
		c3.71,0.02,5.31,1.61,5.31,5.28C52.7,18.77,52.7,30.91,52.7,43.05z M41.03,71.08c-1.24,0-2.48,0-3.72,0c-4.28,0-4.22,0-4.17,4.27
		c0.02,1.31,0.47,1.63,1.68,1.6c3.17-0.07,6.34,0.02,9.51-0.03c4.75-0.08,3.95,0.88,4.1-4.16c0.04-1.44-0.55-1.75-1.82-1.7
		C44.75,71.14,42.89,71.08,41.03,71.08z M33.26,17.31c0.28,0.12,0.41,0.21,0.53,0.21c3.31,0.02,6.62,0.05,9.93,0.05
		c4.97,0.01,4.97,0,4.62-4.97c-0.01-0.12-0.13-0.23-0.23-0.39c-4.9,0-9.83,0-14.85,0C33.26,13.96,33.26,15.58,33.26,17.31z
		 M48.18,20.95c-5.07,0-10.01,0-14.92,0c0,0.91,0,1.65,0,2.64c4.35,0,8.61,0,12.87,0C48.58,23.58,48.58,23.58,48.18,20.95z"/>
	<path class="st0" d="M56.7,7.67c0.02-2.63,1.23-4.18,3.47-4.65c4.72-0.99,9.45-1.96,14.19-2.87c3.26-0.63,5.26,0.75,6.01,4.11
		c3.79,16.99,7.55,33.98,11.33,50.97c1.45,6.51,2.91,13.02,4.4,19.52c0.95,4.17-0.26,6.05-4.48,6.86c-4.4,0.85-8.79,1.76-13.19,2.59
		c-2.83,0.53-4.85-0.78-5.5-3.62c-4.15-18.44-8.27-36.9-12.4-55.35c-1.17-5.23-2.35-10.47-3.51-15.7
		C56.85,8.78,56.76,8.03,56.7,7.67z M90.08,68.4c-5.05,1.02-9.81,1.99-14.65,2.97c0.24,2.02,0.6,3.8,1.27,5.66
		c4.9-1.01,9.71-2,14.63-3.01C90.89,72.05,90.51,70.32,90.08,68.4z M63.63,18.95c5.01-1.01,9.83-1.98,14.85-3
		c-0.76-1.87-0.57-3.73-1.56-5.35c-4.78,0.97-9.48,1.92-14.31,2.89C62.54,15.35,63.2,16.94,63.63,18.95z M64.29,22.2
		c0.58,0.99-0.07,2.75,2.1,2.28c4.35-0.94,8.71-1.81,13.12-2.71c0.15-1.01-0.09-1.82-0.65-2.69c-4.49,0.9-8.98,1.81-13.47,2.72
		C65.07,21.86,64.76,22.02,64.29,22.2z"/>
	<path class="st0" d="M340.76,65.01c0,7.98,0,15.48,0,23.11c-3.91,0-7.74,0-11.66,0c0-20.88,0-41.74,0-62.69c3.69,0,7.32,0,11.16,0
		c0,1.94,0,3.89,0,5.83c0.84,0.11,0.97-0.5,1.2-0.83c5.75-8.16,18.1-7.35,24.46-1.65c4.7,4.21,6.46,9.62,6.94,15.6
		c0.42,5.26-0.05,10.47-1.96,15.44c-4.81,12.47-17.72,13.96-24.71,10.26c-1.05-0.56-2.01-1.22-2.82-2.06
		C342.56,67.18,341.84,66.26,340.76,65.01z M360.61,48.16c0.15-2.94-0.45-5.81-1.77-8.51c-1.65-3.38-4.4-4.88-8.14-4.91
		c-3.79-0.03-6.78,1.29-8.46,4.76c-2.62,5.41-2.69,11.07-0.64,16.61c1.32,3.56,4.21,5.45,8.11,5.72c4.07,0.28,7.12-1.24,9.05-4.84
		C360.23,54.26,360.69,51.29,360.61,48.16z"/>
	<path class="st0" d="M137.7,64.73c0,2.23,0,3.85,0,5.59c-3.89,0-7.65,0-11.54,0c0-20.15,0-40.31,0-60.61c3.76,0,7.59,0,11.59,0
		c0,6.99,0,13.97,0,21.36c1.06-1.13,1.79-2.01,2.63-2.77c7.24-6.61,19.59-4.92,25.4,3.48c4.2,6.06,4.8,12.89,4.11,19.94
		c-0.44,4.49-1.96,8.61-4.35,12.5C159.81,73.54,143.59,74.46,137.7,64.73z M137.63,48.23c-0.13,3.09,0.38,6.18,1.98,9.01
		c3.48,6.13,12.39,6.48,15.84,0.38c3.36-5.94,3.09-12.28,0.27-18.41c-1.55-3.37-4.61-4.49-8.18-4.48c-3.59,0.01-6.42,1.38-8.18,4.6
		C137.87,42.05,137.61,45.05,137.63,48.23z"/>
	<path class="st0" d="M323.84,70.45c-4.72,0-9.07-0.04-13.41,0.03c-1.12,0.02-1.37-0.7-1.77-1.4c-3.18-5.61-6.37-11.23-9.56-16.84
		c-0.17-0.29-0.38-0.57-0.66-0.98c-1.47,1.54-2.87,3.05-4.33,4.5c-0.59,0.59-0.43,1.27-0.43,1.93c-0.02,4.19-0.01,8.38-0.01,12.66
		c-3.94,0-7.71,0-11.59,0c0-20.19,0-40.35,0-60.61c3.8,0,7.51,0,11.42,0c0,10.72,0,21.44,0,32.85c2.7-3.07,4.99-5.65,7.26-8.25
		c2.23-2.54,4.44-5.09,6.67-7.62c0.54-0.62,1.07-1.14,2.06-1.12c4.35,0.06,8.71,0.03,13.62,0.03c-5.55,5.77-10.81,11.23-16.11,16.74
		C312.58,51.65,318.11,60.88,323.84,70.45z"/>
	<path class="st0" d="M540.6,51.16c-11.01,0-21.78,0-32.54,0c-0.81,5.19,3.04,10.29,8.3,10.97c4.48,0.58,8.6,0,11.2-4.32
		c0.36-0.61,0.8-0.63,1.36-0.63c3.59,0.01,7.18,0,10.95,0c0,1.78-0.71,3.23-1.55,4.6c-3.41,5.57-8.44,8.82-14.87,9.71
		c-8.41,1.16-16.09-0.45-22.29-6.68c-3.37-3.38-4.58-7.72-5.1-12.32c-0.61-5.42-0.33-10.75,1.82-15.81
		c3.42-8.02,9.77-12.01,18.32-12.58c5.63-0.37,11.05,0.6,15.72,3.97c5.86,4.22,8.19,10.33,8.65,17.28
		C540.7,47.19,540.6,49.05,540.6,51.16z M528.08,43.44c0.24-4.91-3.43-8.99-8.41-9.4c-6.79-0.56-10.74,2.61-11.59,9.4
		C514.76,43.44,521.42,43.44,528.08,43.44z"/>
	<path class="st0" d="M403.39,39.94c-0.28-6.68,3.95-12.62,10.55-14.44c6.74-1.86,13.48-1.6,20.09,0.86
		c5.76,2.14,7.77,6.59,7.78,12.31c0.02,8.06-0.01,16.13,0.01,24.19c0.01,2.18-0.25,4.47,2.14,5.83c0.66,0.38,0.25,1.08,0.31,1.78
		c-4.07,0-8-0.02-11.93,0.02c-0.88,0.01-1.23-0.36-1.37-1.16c-0.21-1.21-0.47-2.42-0.75-3.79c-1.22,1-2.32,1.98-3.5,2.86
		c-4.53,3.37-9.6,4.39-15.05,3.06c-6.3-1.54-9.76-6-9.96-12.49c-0.21-6.67,3.15-11.64,9.38-13.73c4.4-1.48,9.06-1.68,13.58-2.53
		c0.94-0.18,1.87-0.43,2.78-0.74c1.57-0.55,2.54-1.63,2.54-3.36c0-1.79-0.63-3.32-2.41-3.96c-2.92-1.05-5.91-1.28-8.92-0.3
		c-2.12,0.69-3.24,2.3-3.7,4.33c-0.24,1.06-0.72,1.3-1.69,1.28C410.02,39.92,406.77,39.94,403.39,39.94z M429.88,48.57
		c-2.88,1.71-5.79,1.9-8.6,2.46c-1.87,0.38-3.77,0.74-5.4,1.87c-2.08,1.44-2.44,3.54-2.22,5.83c0.19,1.94,1.25,3.33,3.05,4.07
		c3.96,1.64,11.7-0.63,12.81-6.46C429.98,53.87,429.76,51.44,429.88,48.57z"/>
	<path class="st0" d="M221.71,48.2c-0.15,8.08-2.53,15.29-9.42,20.09c-14.6,10.17-34.14,1.49-36.48-16.03
		c-1.16-8.66,0.78-16.4,6.95-22.8c2.98-3.09,6.82-4.66,11.01-5.14c7.98-0.91,15.71-0.44,21.56,6.06
		C219.86,35.4,221.77,41.47,221.71,48.2z M187.88,47.7c-0.03,2.09,0.05,3.93,0.46,5.77c1.16,5.18,4.67,8.35,9.68,8.63
		c5.1,0.29,8.91-2.35,10.41-7.58c1.31-4.59,1.29-9.27-0.23-13.83c-1.47-4.43-4.85-6.77-9.51-6.85c-4.62-0.07-7.84,2.07-9.63,6.4
		C188.05,42.71,187.76,45.29,187.88,47.7z"/>
	<path class="st0" d="M251.44,23.97c5.24-0.06,10.96,1.25,15.33,5.84c4.99,5.24,7.04,11.73,6.91,18.86
		c-0.11,5.84-1.74,11.27-5.43,15.9c-5.23,6.56-12.5,8.12-20.28,7.32c-13.89-1.44-22.33-12.78-20.45-26.7
		c0.59-4.36,1.79-8.44,4.19-12.15C236.15,26.19,242.8,23.95,251.44,23.97z M239.78,48.13c-0.13,1.57,0.09,3.34,0.45,5.11
		c1.07,5.24,4.49,8.43,9.49,8.86c4.66,0.4,8.59-1.87,10.21-6.41c1.97-5.49,2-11.07-0.47-16.47c-1.74-3.81-4.98-5.37-9.02-5.36
		c-4.06,0-7.18,1.67-9.02,5.42C240.09,42,239.69,44.9,239.78,48.13z"/>
	<path class="st0" d="M491.12,41.5c-3.75,0-7.33-0.02-10.92,0.02c-0.77,0.01-1.15-0.26-1.3-0.97c-1-4.94-4.23-6.35-7.88-6.29
		c-4.06,0.07-7,2.26-8.2,6.57c-1.43,5.13-1.55,10.35,0.19,15.46c1.69,4.95,6.63,7.23,11.5,5.33c2.65-1.03,3.77-3.36,4.2-5.94
		c0.22-1.3,0.6-1.74,1.92-1.71c3.37,0.09,6.75,0.03,10.38,0.03c-0.39,5.36-2.58,9.72-6.4,13.05c-6.98,6.09-15.18,6.23-23.34,3.27
		c-7.48-2.7-10.36-9.22-11.51-16.59c-0.79-5.04-0.45-10.06,0.98-14.93c2.88-9.88,11.05-15.24,21.78-14.47
		c2.13,0.15,4.24,0.42,6.32,0.98c7.07,1.9,10.8,6.67,11.97,13.68C490.93,39.72,490.99,40.47,491.12,41.5z"/>
	<path class="st0" d="M393.2,70.4c-3.9,0-7.68,0-11.6,0c0-20.26,0-40.49,0-60.87c3.83,0,7.66,0,11.6,0
		C393.2,29.75,393.2,49.98,393.2,70.4z"/>
</g>
</svg>
