<?xml version="1.0" encoding="utf-8"?>
<!-- Generator: Adobe Illustrator 26.1.0, SVG Export Plug-In . SVG Version: 6.00 Build 0)  -->
<svg version="1.1" id="Lager_1" xmlns="http://www.w3.org/2000/svg" xmlns:xlink="http://www.w3.org/1999/xlink" x="0px" y="0px"
	 viewBox="0 0 480.2 488.5" style="enable-background:new 0 0 480.2 488.5;" xml:space="preserve">
<style type="text/css">
	.st0{fill:#92B5F9;}
	.st1{fill:#FFFFFF;}
	.st2{fill:#FA7167;}
	.st3{fill:#7C9AF2;}
	.st4{fill:#BED1F9;}
	.st5{fill:#FB9390;}
	.st6{fill:#E8605D;}
	.st7{fill:#EF7F7F;}
	.st8{fill:#F7A491;}
	.st9{fill:#0B0754;}
	.st10{fill:#4951EC;}
	.st11{fill:#BA3FCA;}
</style>
<path class="st0" d="M134.7,91.4c18.8-0.1,34-15.4,33.9-34.3s-15.4-34.1-34.2-34c-18.8,0.1-34,15.4-33.9,34.3
	C100.5,76.3,115.9,91.5,134.7,91.4z"/>
<path class="st0" d="M147.3,87.9C130.5,95,111,87,103.9,70.1c-7.1-16.9,0.9-36.4,17.8-43.5c16.8-7.1,36.3,0.9,43.4,17.8
	C172.2,61.3,164.2,80.8,147.3,87.9z"/>
<path class="st1" d="M157.5,71.7c7.9-12.7,4-29.5-8.8-37.4c-12.7-7.9-29.4-4-37.2,8.8c-7.9,12.7-3.9,29.5,8.8,37.4
	C133,88.3,149.7,84.4,157.5,71.7z"/>
<path class="st1" d="M144.4,81c-13.1,5.5-28.1-0.7-33.6-13.8c-5.5-13.1,0.7-28.2,13.7-33.7c13.1-5.5,28.1,0.7,33.6,13.8
	C163.6,60.4,157.5,75.5,144.4,81z"/>
<path class="st0" d="M113.5,64.6l-4.2,1.8c-0.7,0.3-1,1.1-0.7,1.8c0.3,0.7,1.1,1,1.8,0.7l4.2-1.8c0.7-0.3,1-1.1,0.7-1.8
	C115,64.6,114.2,64.3,113.5,64.6z"/>
<path class="st0" d="M142.5,76.5c-0.7,0.3-1,1.1-0.7,1.8l1.8,4.2c0.3,0.7,1.1,1,1.8,0.7c0.7-0.3,1-1.1,0.7-1.8l-1.8-4.2
	C144.1,76.5,143.2,76.2,142.5,76.5z"/>
<path class="st0" d="M158.7,45.6l-4.2,1.8c-0.7,0.3-1,1.1-0.7,1.8c0.3,0.7,1.1,1,1.8,0.7l4.2-1.8c0.7-0.3,1-1.1,0.7-1.8
	C160.2,45.6,159.4,45.3,158.7,45.6z"/>
<path class="st0" d="M123.6,31.2c-0.7,0.3-1,1.1-0.7,1.8l1.8,4.2c0.3,0.7,1.1,1,1.8,0.7c0.7-0.3,1-1.1,0.7-1.8l-1.8-4.2
	C125.1,31.2,124.3,30.9,123.6,31.2z"/>
<path class="st0" d="M133.1,19.6l0.4-5.4c0-0.4,0.4-0.8,0.9-0.7l6.2,0.4c0.4,0,0.8,0.4,0.7,0.9l-0.4,5.4c0,0.4-0.4,0.8-0.9,0.7
	l-6.2-0.4C133.4,20.5,133.1,20.1,133.1,19.6z"/>
<path class="st0" d="M109.1,29.9l-4.1-3.5c-0.3-0.3-0.9-0.3-1.1,0.1l-4,4.7c-0.3,0.3-0.3,0.9,0.1,1.1l4.1,3.5
	c0.3,0.3,0.9,0.3,1.1-0.1l4-4.7C109.4,30.7,109.4,30.2,109.1,29.9z"/>
<path class="st0" d="M115.7,21c-0.4,0.1-0.9,0-1-0.4l-1.5-3.6c-0.1-0.4,0-0.9,0.4-1l7.3-3.1c0.4-0.1,0.9,0,1,0.4l1.5,3.6
	c0.1,0.4,0,0.9-0.4,1L115.7,21z"/>
<path class="st0" d="M117.6,22.3c-3.6,0.3-7-1.7-8.5-5.2c-1.8-4.3,0.2-9.4,4.6-11.2c4.3-1.8,9.3,0.2,11.1,4.6
	c1.4,3.5,0.4,7.4-2.3,9.7l0.8,1.9c3.7-2.9,5.2-7.9,3.3-12.5c-2.3-5.4-8.4-7.9-13.8-5.7c-5.4,2.3-7.9,8.5-5.7,13.8
	c1.9,4.5,6.6,7,11.2,6.4L117.6,22.3z"/>
<path class="st0" d="M121.1,25.1c0.9-0.4,1.7-0.7,2.6-1l-2.1-5.2l-4,1.7l2.1,5.1C120.1,25.5,120.6,25.3,121.1,25.1z"/>
<path class="st0" d="M136.8,56.2c0.5,1.3-0.1,2.7-1.3,3.3c-1.3,0.5-2.7-0.1-3.3-1.3c-0.5-1.3,0.1-2.7,1.3-3.3
	C134.8,54.3,136.2,54.9,136.8,56.2z"/>
<path class="st0" d="M137.1,36.7l-1.8,20.6c0,0.5-0.5,0.9-1,0.9c-0.5,0-0.9-0.5-0.9-1C133.5,57.1,133.4,57.9,137.1,36.7z"/>
<path class="st0" d="M152.5,67.4l-18.4-9.3c-0.5-0.2-0.7-0.8-0.4-1.3c0.2-0.5,0.8-0.7,1.3-0.4C135.1,56.5,134.3,56,152.5,67.4z"/>
<path class="st0" d="M135.4,56.8c0.2,0.5,0,1.1-0.6,1.3c-0.5,0.2-1.1,0-1.3-0.6c-0.2-0.5,0-1.1,0.6-1.3
	C134.6,56,135.2,56.3,135.4,56.8z"/>
<path class="st2" d="M387.7,205c-0.3-0.3-0.6-0.4-1-0.3c-1.8,0.5-5.1-0.2-6.7-0.8l-1.7-8.7c1.3-1.1,4-3.1,5.8-3.3
	c0.4,0,0.7-0.3,0.8-0.7l2.2-6.6c0.1-0.4,0-0.7-0.3-1c-1.3-1.3-2.3-4.5-2.6-6.2l6.6-5.9c1.6,0.5,4.7,1.9,5.8,3.4
	c0.2,0.3,0.6,0.4,1,0.4l6.8-1.4c0.4-0.1,0.7-0.4,0.8-0.7c0.5-1.8,2.7-4.3,4-5.4l8.4,2.8c0.4,1.7,0.7,5,0,6.7c-0.1,0.3-0.1,0.7,0.2,1
	l4.6,5.2c0.3,0.3,0.6,0.4,1,0.3c1.8-0.5,5.1,0.2,6.7,0.8l1.7,8.7c-1.3,1.2-4,3.1-5.8,3.3c-0.4,0-0.7,0.3-0.8,0.7L423,204
	c-0.1,0.4,0,0.7,0.3,1c1.3,1.3,2.3,4.5,2.6,6.2l-6.6,5.9c-1.6-0.5-4.7-1.9-5.8-3.4c-0.2-0.3-0.6-0.4-1-0.4l-6.8,1.4
	c-0.4,0.1-0.7,0.4-0.8,0.7c-0.5,1.8-2.7,4.3-4,5.4l-8.4-2.8c-0.4-1.7-0.7-5,0-6.7c0.2-0.3,0.1-0.7-0.2-1L387.7,205z M406.8,202.9
	c4.7-1,7.8-5.6,6.8-10.3c-1-4.8-5.5-7.8-10.3-6.8s-7.8,5.6-6.8,10.3C397.4,200.8,402,203.8,406.8,202.9z M407.9,208.4
	c7.7-1.6,12.8-9.1,11.2-16.9c-1.5-7.8-9.1-12.8-16.9-11.2c-7.7,1.6-12.8,9.1-11.2,16.9C392.6,204.9,400.1,210,407.9,208.4z"/>
<path class="st2" d="M444.1,236.2c0.1-0.3,0.3-0.5,0.6-0.6l5.4-1.1c0.3-0.1,0.6,0,0.8,0.3c0.9,1.2,3.3,2.3,4.6,2.7l5.3-4.6
	c-0.3-1.3-1-3.9-2.1-4.9c-0.2-0.2-0.3-0.5-0.2-0.8l1.7-5.2c0.1-0.3,0.3-0.5,0.6-0.5c1.4-0.2,3.6-1.7,4.6-2.6l-1.4-6.9
	c-1.3-0.4-3.8-1-5.3-0.6c-0.3,0.1-0.6,0-0.8-0.2l-3.7-4.2c-0.2-0.2-0.3-0.6-0.2-0.8c0.6-1.4,0.3-4,0-5.3l-6.7-2.2
	c-1,0.9-2.8,2.8-3.2,4.3c-0.1,0.3-0.3,0.5-0.6,0.6l-5.4,1.1c-0.3,0.1-0.6,0-0.8-0.3c-0.9-1.2-3.3-2.3-4.6-2.7l-5.3,4.6
	c0.3,1.3,1,3.9,2.1,4.9c0.2,0.2,0.3,0.5,0.2,0.8l-1.7,5.2c-0.1,0.3-0.3,0.5-0.6,0.5c-1.4,0.2-3.6,1.7-4.6,2.6l1.4,6.9
	c1.3,0.4,3.9,1,5.3,0.6c0.3-0.1,0.6,0,0.8,0.2l3.7,4.2c0.2,0.2,0.3,0.6,0.2,0.8c-0.6,1.4-0.3,4,0,5.3l6.7,2.2
	C441.9,239.6,443.7,237.6,444.1,236.2z M445.9,227.9c-4.7,0.9-9.2-2.1-10.1-6.8c-0.9-4.7,2.1-9.2,6.7-10.2c4.7-0.9,9.2,2.1,10.1,6.8
	C453.6,222.4,450.6,226.9,445.9,227.9z"/>
<path class="st0" d="M78.8,160.4l-6-2.3l-5.3,3.7c-0.6,0.4-1.4,0-1.4-0.8l0.3-6.4l-5.1-3.9c-0.6-0.4-0.4-1.4,0.3-1.6l6.2-1.7
	l2.1-6.1c0.2-0.7,1.2-0.8,1.6-0.2l3.5,5.4l6.4,0.1c0.7,0,1.1,0.9,0.7,1.4l-4,5l1.9,6.2C80.2,160,79.5,160.6,78.8,160.4z"/>
<path class="st3" d="M88,114.5l-3.3-8.8l-8.4,2.5l-3.6-8.5l-8.3,1.4l-3.7-5.9l-3,1.9l5,7.9l7.8-1.3l3.7,8.9l8.2-2.5l3,8L88,114.5z"
	/>
<path class="st4" d="M424.1,128.6l-8.2-4.5l-4.7,7.4l-8.3-4.1l-5.4,6.5l-6.7-2l-1,3.4l9,2.7l5-6.1l8.6,4.2l4.6-7.2l7.4,4.1
	L424.1,128.6z"/>
<path class="st0" d="M207.9,17.8l-3.5,8.7l7.8,3.8l-3.1,8.7l7,4.6l-1.2,6.9l3.5,0.6l1.7-9.2l-6.7-4.3l3.2-9.1l-7.7-3.7l3.2-7.9
	L207.9,17.8z"/>
<path class="st2" d="M414.8,242l-1.7-3.4l-3.9,0.1l-1.7-4l-4.1,1.4l-2.1-4.4l-3.9,0.9l-2.7-3.9l1.4-1l2,2.9l4.2-0.9l2,4.2l4.2-1.4
	l1.8,4.4l3.8-0.1l1.6,3.2l2.5-0.6l0.4,1.7L414.8,242z"/>
<path class="st2" d="M343,84.1l-1.8-5.4l8.4-3.9l-1.7-8.2l5.8-3.9l-2-2.9l-7.7,5.2l1.6,7.8l-8.7,4l2.7,8.2L343,84.1z"/>
<path class="st4" d="M410,71.6c9.2,14.1-3.3,33.8-19.8,30.8c-3-0.5-6,0.1-8.7,1.8l-9.1,5.6c-2.5,1.6-5.7,0.9-7.2-1.6l-3.5-5.3
	c-1.6-2.4-1.1-5.8,1.2-7.7c8.2-7.1,11.7-9.1,12.8-15C379,63,400.7,57.5,410,71.6z"/>
<path class="st1" d="M388.3,79.4c-0.2-0.8-0.4-1.6-0.5-2.5c-0.4-4.9,3.4-6.6,5.4-5.4c1.3,0.8,1.8,2.7,1.1,4.5
	c-0.7,1.6-2.1,2.8-3.5,4c0.8,2.7,2,5.3,3.7,7.5c4.5-2.7,7.7-1.2,7.9,1.2c0.2,1.6-0.9,3.2-2.4,3.9c-0.9,0.4-3.3,0.9-6-2.2
	c-7.6,5.3-17.5,13.3-17.5,13.3l-1.3-1.7c0,0,9.9-7.9,17.4-13.3c-1.5-2.2-2.8-4.6-3.6-7.2c-8.6,7.6-16.2,13.5-16.5,13.8l-1.3-1.7
	C371.7,93.2,379.1,87.5,388.3,79.4z M392,73.4c-0.7-0.3-2.4,0.5-1.7,4.3C392.2,75.9,392.9,75.2,392,73.4z M395.8,89.3
	c1.1,1.2,2.8,2.2,3.9,1C401.2,88.6,399.1,87.5,395.8,89.3z"/>
<path class="st0" d="M381.8,104.1c-0.1,0-0.1,0.1-0.2,0.1l-9.1,5.6c-2.5,1.6-5.7,0.9-7.2-1.6l-3.5-5.3c-1.6-2.4-1.1-5.8,1.2-7.7
	c3.7-3.2,6.4-5.3,8.4-7.2L381.8,104.1z"/>
<path class="st5" d="M80.9,369.5c0,0-0.3-1.4-0.4-1.9c-0.1-0.6-0.1-2.3-0.1-2.3s0-6.1,0.4-6c0.4,0,1,1.1,1.1,1.4
	c0.1,0.4,0.3,0.8,0.4,1.2c0.1,0.4,0.5,0.6,1,0.4c0.5-0.1,0.3-1.7,0.1-2.3c-0.6-1.7-3-5.9-3.2-6.3c-0.3-0.6,1.7-11,2-14.7
	c0.8-5.9,1.9-12,2-12.7l10.6-23.5l-7.1-7.2c0,0-12.1,25.8-12.5,27.2c-0.2,0.6-1,14.6-1,14.6c0,6.9,0.1,13,0.1,14.1
	c0,0-1,3.5-1.8,5.6c-0.8,2.2-0.6,4.5-0.7,5.1c0,0.1-0.6,2.3-0.2,5c0.3,2.4,1.1,0,1.1,0s0.2-4.5,0.6-4.4c0.3,0.1,0,2.5,0.3,5.1
	c0.1,0.7,0.2,1.3,0.3,2c0.2,1.6,1.3,1.9,1.3,0.2c0-0.6,0-1.6-0.1-2.3c-0.1-0.8,0-1.5,0-2.2c0-1.3,0-2.3,0.1-2.3
	c0.1,0,0.3-0.2,0.4,0.5c0.1,0.9,0,2.7,0.3,4c0.2,0.7,0.4,2.2,0.4,2.2s0.7,2.4,0.8,2.4c0.8,0,0.8-1.9,0.4-2.8
	c0.1-0.7-0.2-2.3-0.2-2.3s0.1-3.3,0.6-3.3c0.4,0,1.7,8,2.5,7.9C81.2,371.9,80.9,369.5,80.9,369.5z"/>
<path class="st6" d="M90.6,316.5c0,0-4.4-0.7-6.7-1.6c-3.1-1.2-5.1-2.2-5.1-2.2s3.4-14.6,7.7-23.5c1.7-3.7,3.6-5.5,6-5.9
	c0,0,5.2,3.5,5,11.7C97.4,297,90.6,316.5,90.6,316.5z"/>
<path class="st5" d="M104.1,365.7l5.7,52.5c0,0-2.8,11.1-2.4,14.3c0.3,3.2,6.2,44.5,6.2,44.5l-0.3,2.3v6.9H135c0,0-4.6-2.1-11.1-6.3
	c-0.5-0.3-1.6-1.3-1.9-3.3c-1.7-12.7,1.7-55.3,1.7-55.3l2.7-55.3L104.1,365.7z"/>
<path class="st5" d="M86.6,376.7c-1.2,0.3-3.1,45.4-4.1,47.4c-6.4,12.7-8,51.2-8,51.2l-1.9,5.5l-2,6.7c0,0,6.4,1.8,9.8-0.1l-0.4-6.6
	l-0.3-6.1l16.2-48l8.9-49L86.6,376.7z"/>
<path class="st2" d="M119,289.3c-2.6-3.7-13.4-14.4-14.6-14.4c-3.5,0.1-15,0.1-17.2,1.3v2.5c0.1,11.3,1.5,22.5,4.3,33.4
	c2,7.6,3.8,15.7,3.6,18.6l0,0c6.7,6.6,17.1,6.1,23.2-1.2c0,0,0-8.1,0.9-15.4C120.7,302.6,125.4,298.5,119,289.3z"/>
<path class="st5" d="M100.8,263.4c0,0,0.3,7.5-0.3,10.4c-0.7,2.9-1.5,3.1,4.1,3.9c2.2,0.3,4.3,0.9,4.3,0.9s-0.6-4.2-0.7-5.9
	c-0.1-2.9,0.7-11.9,0.7-11.9L100.8,263.4z"/>
<path class="st7" d="M105.1,267.2c1.1,0.6,2.2,1,3.2,1.2c0.2-3.6,0.6-7.6,0.6-7.6l-7.7,2.6C102,264.9,103.3,266.2,105.1,267.2z"/>
<path class="st5" d="M102.6,242.4c0,0-3.2,1.2-5,4.7c-1.8,3.5-2.4,13.5,4.6,17.4c3.4,1.9,7.4,2.3,9.3,0.6c1.9-1.7,1.7-5.6,1.5-8.8
	C112.6,250,111.2,240.4,102.6,242.4z"/>
<path class="st8" d="M97.4,254.9c0.4,1.7-0.1,3.3-1.2,3.6c-1,0.3-2.2-0.8-2.6-2.4c-0.4-1.7,0.1-3.3,1.2-3.6
	C95.9,252.2,97,253.2,97.4,254.9z"/>
<path class="st2" d="M80.1,480.8c-3,1.4-6.1,0.5-7.4,0.1l-2.1,6.8c0,0,6.5,1.9,9.8,0L80.1,480.8z"/>
<path class="st2" d="M113,487.8h22.6c0.9-0.1,1-0.8,0.7-1.2c-0.6-0.9-3.2-1.6-6.2-3c-5.2,0.6-16.1-3.1-16.9-4.4
	C112.8,481.8,112.6,487.7,113,487.8z"/>
<path class="st5" d="M158.4,306.4c0.4-0.6,1.9-3.6,1.9-3.6s1.5-5.1,1.2-5c-0.2,0-0.8,0.8-1.5,2.3c-0.5,0.9-1,2.6-1.4,3.4
	c-0.8,1.4-1.7,2-1.5,1.5c0.2-0.4,0.7-0.7,1.2-1.6c1.2-2.1,2.2-5.5,1.8-5.5c-0.4,0.1-1.6,2.4-2.9,4.2c-0.6,0.8-2.1,1.8-3.2,2.5
	c0-0.4,0.1-0.9,0.2-1.1c0.1-0.4,1.9-2.8,1.2-3.1s-5,4.9-5,4.9l-1.7,3l-0.1,0.1c0,0-21.3,8.4-22,8.1c-1.7-0.5-7.4-17.1-7.4-17.1
	l-11.9,2.2c-0.2-0.1,12.5,24.8,14.9,25.9c2.1,1.1,24.2-10.5,28.4-13c5.7-2.2,8-4.8,8.9-6.2c0.5-0.7,2.4-3.9,2.4-3.9s0.4-4.3,0.1-4.4
	c-1-0.1-1.3,4-1.3,4s-1.4,1.9-1.7,2.2C158.3,306.9,158.4,306.4,158.4,306.4z"/>
<path class="st6" d="M99.6,284.9c-1.6,6.9,7,22.3,7,22.3s12.4-6,14.5-8.6c0,0-8.5-14.1-9-15c-1.1-2-5.1-6.1-7.8-5.3
	C102.5,278.7,99.6,284.9,99.6,284.9z"/>
<path class="st9" d="M101.5,267.9c0.9-6.3,11.4-19.3,7.4-24.6c-3.3-4.4-9-3-12.6-1.8c-16.5,5.7-15.5,26.5-20.8,29.7
	c-9.4,5.9-15.2,9.6-15.9,22.9c-0.8,15.8,12.5,23.8,28.6,19.9c8.6-2.1,10.9-4.9,14.4-13.1c1.6-3.7,4.7-15.2,3.8-20.8
	C105.6,275.1,100.8,272.9,101.5,267.9z"/>
<path class="st5" d="M107.8,256.2c0,1.9-0.7,3.4-1.5,3.4c-0.9,0-1.5-1.5-1.5-3.4c0-1.9,0.7-3.4,1.5-3.4
	C107.1,252.8,107.8,254.4,107.8,256.2z"/>
<path class="st0" d="M128.5,399.8l0.8-31.1c0.1-8.8-1.6-17.5-5.1-25.5l-5.9-13.5c-2.4,0.8-4.6,1.4-7.1,1.7c-5.4,0.6-10.8,0-16.2-0.6
	c0,0.2,0,0.4-0.1,0.6c-1,4.6-6.4,14.8-8.7,28.8c-2.6,15.8-3.6,39.6-3.3,41.5C107.9,402.7,113.9,403.6,128.5,399.8z"/>
<path class="st10" d="M332.2,244l18.8,18.8c0,0,35.8,14,39.8,22.6s-3.6,8.2-12,7c-8.4-1.2-32.2-16-32.2-16l-21.8-25.2L332.2,244z"/>
<path class="st4" d="M387.2,281.6l-4.7-1.7l-9,4.2c0,0-4.7,3.2-6.9,11c-2.2,7.8,0,54.6,3.7,62.1
	C374.2,364.7,387.2,281.6,387.2,281.6z"/>
<path class="st5" d="M416.7,469.1c0,0,3.3,2.1,3.6,3.1c0.3,1,2.7,11.6,1.8,12.8c-0.9,1.2-4.2,0.6-2.9,1.5c1,0.7,7.2,1.2,11.2,0.1
	c1.2-0.3,0.6-10.2,0.8-11.8c0.3-2.2,1.8-7.2,0.9-8.5c-0.5-0.6-3-1.7-5.3-2.6c-2.4-1-5.2-3.6-5.2-3.6L416.7,469.1z"/>
<path class="st9" d="M426.5,463.7c0,0-2,18.9-4.2,20.2c-0.6,0.4-3.8,0.6-4.1,2.2c0,0-0.1,1.6,0.9,1.6l12.2,0c0,0,0.1-9.3,0-12.9
	c0,0,1.7-9.3,1.2-9.9C431.9,464.2,426.5,463.7,426.5,463.7z"/>
<path class="st5" d="M464.4,469.1c0,0,3.3,2.1,3.6,3.1c0.3,1,2.7,11.6,1.8,12.8c-0.9,1.2-4.2,0.6-2.9,1.5c1,0.7,7.3,1.2,11.3,0.1
	c1.2-0.3,0.6-10.2,0.8-11.8c0.3-2.2,1.8-7.2,0.8-8.5c-0.4-0.6-3-1.7-5.3-2.6c-2.4-1-5.1-3.6-5.1-3.6L464.4,469.1z"/>
<path class="st6" d="M404.6,346.6c0,0,11.1,22.2,13.4,28.1l17,43.2l37.4,44.1c0,0-2.7,7.1-6.9,9c0,0-45.1-36.5-48.8-42.3
	c-5.7-8.8-31.4-62.5-31.4-62.5l-4.8-10.3L404.6,346.6z"/>
<path class="st2" d="M377.7,346.4l0.2,18.9c0,0-8.1,61.8-6.5,65.4c3.8,8.9,45.7,39.3,45.7,39.3l5.7-9.8l-30-33.7l11.4-32.8
	c3.2-7.6,10-22.3,9.8-30.6c-0.1-7.1-14.1-23.5-14.1-23.5L377.7,346.4z"/>
<path class="st10" d="M394.7,374.4c11.1-2.5,20.1-6.5,21-9.5c0.4-1.4-5.8-15.5-10.3-34.3c-1.5-6.2-1.2-11.9-3.6-33.5
	c-0.5-4.6-2.4-14.1-9.4-16.6c-2.5-0.9-3.8-0.7-3.8-0.7c-0.1,0-8.9,0.1-13.1,2.3c-1,1.4-4.8,8.9-5.8,29.3c-0.4,8.9-2.2,37.6-1.8,42.2
	c0,0.7,0.1,1.4,0.2,2C369.6,367.9,382.6,377.1,394.7,374.4z"/>
<path class="st5" d="M375.1,295.9c4.6-0.5,15.9-15.4,15.9-15.4l0,0l-7-11.1c0,0-10.3,1.9-8.3,5c2,3.2,3.2,10.7,3.2,10.7
	c0,0.1-0.1,0.2-0.2,0.3C378,286.9,375.7,291.5,375.1,295.9z"/>
<path class="st7" d="M375.7,274.4c-2-3.2,8.3-5,8.3-5l0.6,0.9c0,0.8-0.1,1.5-0.3,2.1c-1.1,3.2-3.8,5.9-6.6,7.3
	C377.2,277.7,376.5,275.6,375.7,274.4z"/>
<path class="st5" d="M378.2,251.7c0.2-0.2,8.1,12.7,6.2,18c-1.9,5.3-8.2,9.6-12,7.7c-4.1-2.1-10.4-16.9-6.7-23.2
	C369.5,247.9,378.2,251.7,378.2,251.7z"/>
<path class="st9" d="M366.8,245.9c4.6-1,12.8,0.4,17.5,3.6c5.7,4,5.9,11.2,3.3,15.9c-2.6,4.7-1,8.1-1,8.1s-8-0.5-9.6-6
	c-0.7-2.3,0.2-3.9-1.4-5.2c-1.2-1-2.2-3.9-3.4-6.2c0,0-5.2-2.7-7.1-0.5C364.4,256.4,360.9,247.1,366.8,245.9z"/>
<path class="st5" d="M374.8,263.3c0.7,1.7,2.1,2.7,3,2.3c1-0.4,1.2-2.1,0.5-3.8c-0.7-1.7-2.1-2.7-3-2.3
	C374.3,260,374.1,261.7,374.8,263.3z"/>
<path class="st9" d="M474.2,463.7c0,0-2,18.8-4.3,20.2c-0.6,0.4-3.8,0.6-4.1,2.2c0,0-0.1,1.6,0.9,1.6l12.2,0c0,0,0.2-9.3,0.1-12.9
	c0,0,1.7-9.3,1.2-9.9C479.5,464.2,474.2,463.7,474.2,463.7z"/>
<path class="st11" d="M205.2,376.8c-9.7-20.3-12.3-50.6-1.8-74.5c17.8-40.5,66.6-57.1,63-103c-0.9-11.6-6-20.9-13.6-26.9
	C233,156.6,201,165,178.2,176c-14.6,7-28.1,17-40.6,29.9l-6.4-81.1c27.4-19.5,60.6-29.7,93.7-32.3c67.8-5.3,120.3,20.2,125.6,88.3
	c4.8,62.1-37,89.6-65,120.6c-15.6,17.2-19.1,30.5-17.9,45.9c0.6,7.9,3.6,17.7,8.4,24L205.2,376.8z M254,487.7
	c-66,5.2-73.6-83.7-7-88.9C312.7,393.6,319.7,482.5,254,487.7z"/>
<path class="st5" d="M322.2,248c-0.1-0.6,0.3-0.1-0.5-4.5c-0.3-1.3-1-2.6-1.6-3.3c-0.3-0.4-1-1-1.5-1.3c-0.7-0.4-1.3,0.3-1.2,0.7
	s0.9,1.9,1.1,2.3c0.1,0.4,0.2,1.4-0.1,1.8c-0.3,0.3-5.8-5.9-6.1-6.5c-0.3-0.5-0.9-2.5-0.9-2.5s-0.5-1.5-1.1-1.1
	c-0.4,0.3-0.8,1.5,0.3,3.9c1,2.1,2.3,3.8,2.2,3.9c-0.4,0.3-2.8-2.5-2.8-2.5s-0.8-1.6-1.4-2.2c-0.4-1-1-2.4-1.7-1.9
	c-0.1,0.1,0.3,2.3,0.3,2.3s0.8,1.5,1.2,2.2c0.6,1.3,2,2.9,2.5,3.7c0.4,0.7,0,0.5,0,0.6c0,0.1-0.6-0.7-1.6-1.9
	c-0.5-0.6-1.1-1.1-1.5-1.9c-0.4-0.7-1.1-1.6-1.6-2.1c-1.2-1.5-1.9-0.5-1,1.1c0.4,0.6,0.7,1.2,1.2,1.9c1.5,2.5,3.5,4.5,3.3,4.7
	c-0.3,0.3-3.5-3.5-3.5-3.5s-2.3-1.6-0.9,0.7c1.6,2.7,3.3,4.3,3.4,4.4c0.6,0.5,2,2.7,4.1,4.1c2.2,1.4,5.6,3.5,5.6,3.5
	c0.4,0.5,1.4,2,2.8,4.3l5.2-6.3C324.5,250.9,322.3,248.4,322.2,248z"/>
<path class="st3" d="M318.1,256.9l7.2-6.3l24.7,24.5c0,0,38.2,3.4,38.3,3.4l1.5,0.5c13.9,4.8,8.1,16.1,5.5,17.9
	c-6.2,4.1-40.8,1.6-51.9-5.2C334.3,285.9,318.1,256.9,318.1,256.9z"/>
<path class="st2" d="M315.2,47.5L287,66.6c-2.8,1.9-6.7,1.2-8.7-1.7l-19.1-28.2c-1.9-2.9-1.2-6.8,1.7-8.7l28.2-19.1
	c2.8-1.9,6.7-1.2,8.7,1.7l19.1,28.2C318.8,41.7,318,45.6,315.2,47.5z"/>
<path class="st1" d="M301,27.5c4.9,7.3,3,17.3-4.2,22.2c-7.3,4.9-17.2,3-22.1-4.3c-4.9-7.3-3-17.3,4.3-22.2
	C286.2,18.3,296.1,20.2,301,27.5z"/>
<path class="st2" d="M282.6,29.9l6.5,7.2c0.5,0.5,0.5,1.3-0.1,1.8c-0.5,0.5-1.3,0.4-1.8-0.1c-0.1-0.1-0.1-0.2-0.2-0.3L282.6,29.9z"
	/>
<path class="st2" d="M287.6,37.1l9.8-5.5l-8.6,7.4c-0.5,0.4-1.1,0.3-1.6-0.1c-0.4-0.5-0.3-1.1,0.1-1.6
	C287.4,37.2,287.5,37.1,287.6,37.1z"/>
<path class="st1" d="M8.1,194.6c0,2-1.8,3.6-4.1,3.6c-2.3,0-4.1-1.6-4.1-3.6c0-2,1.8-3.6,4.1-3.6C6.3,190.9,8.1,192.6,8.1,194.6z"/>
<path class="st1" d="M27.1,194.6c0,2-1.8,3.6-4.1,3.6s-4.1-1.6-4.1-3.6c0-2,1.8-3.6,4.1-3.6S27.1,192.6,27.1,194.6z"/>
<path class="st1" d="M46,194.6c0,2-1.8,3.6-4.1,3.6s-4.1-1.6-4.1-3.6c0-2,1.8-3.6,4.1-3.6S46,192.6,46,194.6z"/>
<path class="st4" d="M250.2,9.7l-3.8-8.2l3.2-1.5l2.2,4.6l5.3-3.2l1.8,3L250.2,9.7z"/>
<path class="st2" d="M48.2,169.3l-8.5,3l-1.2-3.3l4.8-1.7l-2.7-5.6l3.2-1.5L48.2,169.3z"/>
<path class="st0" d="M385.3,44.9c0.6,2,1.3,4,1.9,6.1c0.5,1.6,0.9,4.1,2.4,5c0.4,0.2,1,0.1,1.2-0.3c0.8-1.7-0.3-3.8-0.8-5.5
	c-0.6-2-1.3-4-1.9-6.1C387.5,42.5,384.8,43.2,385.3,44.9z"/>
<path class="st0" d="M406.6,42.7c-3.2,11.1-3.3,10.8-3,12c0.2,0.9,1.4,1.2,2,0.5c0.8-0.8,0.5-0.6,3.7-11.7
	C409.7,41.8,407.1,41,406.6,42.7z"/>
<path class="st0" d="M419,67.5c1.9-0.9,3.8-1.9,5.7-2.8c1.7-0.8,3.9-1.5,5.1-3c0.5-0.7-0.2-1.6-0.9-1.6c-1.9-0.1-3.9,1.4-5.6,2.2
	c-1.9,0.9-3.8,1.9-5.7,2.8C416,65.9,417.4,68.3,419,67.5z"/>
<path class="st0" d="M412.7,101c2,2.6,3.9,5.2,6.2,7.5c1.2,1.3,2.9-0.6,1.9-1.9c-2.1-2.5-4.2-4.9-6.2-7.5
	C413.6,97.8,411.7,99.7,412.7,101z"/>
<path class="st0" d="M419.9,88c1.8,0.8,3.6,1.5,5.4,2.2c1.7,0.6,3.6,1.8,5.4,1.6c1-0.1,1.1-1.4,0.5-2c-0.7-0.7-1-0.7-5-2.2
	c-1.8-0.7-3.5-1.4-5.3-2.1C419.6,85,418.6,87.4,419.9,88z"/>
</svg>
